/* XPM */
static char * text_xpm[] = {
"32 32 3 1",
" 	g None",
".	g #000000",
"+	g #FFFFFF",
"                                ",
"                                ",
"                                ",
"                                ",
"                                ",
"                                ",
"                                ",
"           .... ....            ",
"           .+++.+++.            ",
"           ...+++...            ",
"              .+.               ",
"              .+.               ",
"              .+.               ",
"              .+.               ",
"              .+.               ",
"              .+.               ",
"              .+.               ",
"              .+.               ",
"              .+.               ",
"              .+.               ",
"              .+.               ",
"           ...+++...            ",
"           .+++.+++.            ",
"           .... ....            ",
"                                ",
"                                ",
"                                ",
"                                ",
"                                ",
"                                ",
"                                ",
"                                "};
